<svg width="188" height="62" viewBox="0 0 188 62" fill="none" xmlns="http://www.w3.org/2000/svg">
<path d="M60.6655 42.53V44H48.0235V42.53L50.0815 42.488L48.1495 35.6H41.0095L39.6235 42.488L41.7655 42.53V44H32.2735V42.53L34.3315 42.488L43.7395 16.196L48.9475 15.482L58.6075 42.488L60.6655 42.53ZM47.6875 34.046L43.9915 20.9L41.3455 34.046H47.6875ZM61.8382 42.53L63.8962 42.488V17.372L61.8382 17.33V15.86H72.9262V17.33L70.8682 17.372V42.488L72.9262 42.53V44H61.8382V42.53ZM99.8875 24.092C99.8875 27.06 98.6135 29.412 96.0655 31.148C93.5455 32.856 89.8495 33.766 84.9775 33.878V42.488L89.5555 42.53V44H75.9475V42.53L78.0055 42.488V17.372L75.9475 17.33V15.86L84.0535 15.944L90.3115 15.65C92.3275 15.65 94.0495 16.028 95.4775 16.784C96.9335 17.54 98.0255 18.562 98.7535 19.85C99.5095 21.138 99.8875 22.552 99.8875 24.092ZM92.4115 25.31C92.4115 23.826 92.0895 22.482 91.4455 21.278C90.8015 20.046 89.9055 19.08 88.7575 18.38C87.6375 17.68 86.3775 17.33 84.9775 17.33V32.24C87.3015 32.1 89.1215 31.428 90.4375 30.224C91.7535 28.992 92.4115 27.354 92.4115 25.31ZM115.476 15.23C118.22 15.23 120.614 15.762 122.658 16.826C124.73 17.89 126.326 19.458 127.446 21.53C128.594 23.602 129.168 26.136 129.168 29.132C129.168 31.036 128.832 33.01 128.16 35.054C127.488 37.07 126.508 38.862 125.22 40.43C123.876 41.69 122.336 42.712 120.6 43.496C118.864 44.252 117.016 44.63 115.056 44.63C112.34 44.63 109.946 44.098 107.874 43.034C105.83 41.97 104.234 40.402 103.086 38.33C101.966 36.258 101.406 33.724 101.406 30.728C101.406 28.852 101.756 26.892 102.456 24.848C103.156 22.804 104.15 20.998 105.438 19.43C106.754 18.17 108.266 17.162 109.974 16.406C111.71 15.622 113.544 15.23 115.476 15.23ZM108.882 27.788C108.882 31.036 109.302 33.654 110.142 35.642C110.982 37.63 112.256 39.1 113.964 40.052C115.672 40.976 117.884 41.508 120.6 41.648C120.936 40.248 121.202 38.61 121.398 36.734C121.622 34.83 121.734 33.276 121.734 32.072C121.734 28.796 121.3 26.164 120.432 24.176C119.592 22.16 118.304 20.676 116.568 19.724C114.832 18.772 112.62 18.24 109.932 18.128C109.624 19.584 109.372 21.278 109.176 23.21C108.98 25.142 108.882 26.668 108.882 27.788ZM147.774 39.8C149.006 39.8 150.196 39.548 151.344 39.044C152.492 38.54 153.556 37.812 154.536 36.86L155.628 38.078C152.184 42.446 148.236 44.63 143.784 44.63C141.236 44.63 139.01 44.056 137.106 42.908C135.23 41.76 133.774 40.136 132.738 38.036C131.702 35.936 131.184 33.472 131.184 30.644C131.184 28.208 131.646 25.856 132.57 23.588C133.522 21.292 134.726 19.458 136.182 18.086C137.61 17.162 139.136 16.462 140.76 15.986C142.412 15.482 144.036 15.23 145.632 15.23C147.76 15.23 149.706 15.692 151.47 16.616C153.262 17.512 154.676 18.772 155.712 20.396L150.546 24.722C149.09 22.146 147.34 19.36 145.296 16.364C144.064 16.868 142.944 17.736 141.936 18.968C140.928 20.2 140.13 21.67 139.542 23.378C138.982 25.086 138.702 26.864 138.702 28.712C138.702 32.24 139.486 34.97 141.054 36.902C142.65 38.834 144.89 39.8 147.774 39.8Z" fill="black"/>
<g style="mix-blend-mode:exclusion" opacity="0.6">
<g filter="url(#filter0_i)">
<path d="M57.1894 35.6546C56.8413 35.6546 56.4932 35.6548 56.1452 35.6551C58.4348 35.6795 60.2637 36.551 62.4022 36.7761C63.957 36.9397 65.6272 37.8844 67.0544 38.2922C69.0648 38.8666 71.204 40.8151 73.3264 40.8882C78.7741 41.0761 84.2012 40.5144 89.6089 40.5144C96.782 40.5144 104.41 39.5706 110.834 36.1115C113.392 34.734 115.335 32.2901 118.477 32.2901C123.678 32.2901 128.941 31.9163 134.178 31.9163C136.197 31.9163 140.794 32.2337 141.655 29.6525C142.098 28.3215 142.69 27.4166 143.447 26.2594L143.524 26.1427C144.525 24.6112 146.422 23.178 147.096 21.5321C147.399 20.7906 147.756 16.2154 146.701 16.2154C145.712 16.2154 144.985 16.3096 144.022 16.5892C140.078 17.7344 136.132 18.2943 132.06 18.8322C127.269 19.4648 122.304 20.7693 117.563 21.8228C112.531 22.9412 107.454 23.5232 102.506 25.0419C98.1434 26.381 93.4884 27.4388 89.3389 29.3618C85.3183 31.2249 81.5899 33.2113 77.2309 34.2839C70.6893 35.8935 63.872 35.6546 57.1894 35.6546Z" fill="#FF0000"/>
</g>
<path d="M39.9724 35.2808C45.7031 35.7133 51.4456 35.6546 57.1894 35.6546C63.872 35.6546 70.6893 35.8935 77.2309 34.2839C81.5899 33.2113 85.3183 31.2249 89.3389 29.3618C93.4884 27.4388 98.1434 26.381 102.506 25.0419C107.454 23.5232 112.531 22.9412 117.563 21.8228C122.304 20.7693 127.269 19.4648 132.06 18.8322C136.132 18.2943 140.078 17.7344 144.022 16.5892C144.985 16.3096 145.712 16.2154 146.701 16.2154C147.756 16.2154 147.399 20.7906 147.096 21.5321C146.422 23.178 144.525 24.6112 143.524 26.1427C142.73 27.3567 142.113 28.2771 141.655 29.6525C140.794 32.2337 136.197 31.9163 134.178 31.9163C128.941 31.9163 123.678 32.2901 118.477 32.2901C115.335 32.2901 113.392 34.734 110.834 36.1115C104.41 39.5706 96.782 40.5144 89.6089 40.5144C84.2012 40.5144 78.7741 41.0761 73.3264 40.8882C71.204 40.8151 69.0648 38.8666 67.0544 38.2922C65.6272 37.8844 63.957 36.9397 62.4022 36.7761C60.2333 36.5478 58.3828 35.6546 56.0471 35.6546C54.3134 35.6546 52.9076 35.2808 51.1873 35.2808" stroke="black" stroke-linecap="round" stroke-linejoin="round"/>
</g>
<defs>
<filter id="filter0_i" x="39.4723" y="15.7154" width="108.436" height="29.7113" filterUnits="userSpaceOnUse" color-interpolation-filters="sRGB">
<feFlood flood-opacity="0" result="BackgroundImageFix"/>
<feBlend mode="normal" in="SourceGraphic" in2="BackgroundImageFix" result="shape"/>
<feColorMatrix in="SourceAlpha" type="matrix" values="0 0 0 0 0 0 0 0 0 0 0 0 0 0 0 0 0 0 127 0" result="hardAlpha"/>
<feOffset dy="4"/>
<feGaussianBlur stdDeviation="2"/>
<feComposite in2="hardAlpha" operator="arithmetic" k2="-1" k3="1"/>
<feColorMatrix type="matrix" values="0 0 0 0 0 0 0 0 0 0 0 0 0 0 0 0 0 0 0.25 0"/>
<feBlend mode="normal" in2="shape" result="effect1_innerShadow"/>
</filter>
</defs>
</svg>
